<?xml version="1.0" encoding="utf-8"?>
<!-- Generator: Adobe Illustrator 23.0.3, SVG Export Plug-In . SVG Version: 6.00 Build 0)  -->
<svg version="1.1" id="Layer_1" xmlns="http://www.w3.org/2000/svg" xmlns:xlink="http://www.w3.org/1999/xlink" x="0px" y="0px"
	 viewBox="0 0 50 45" style="enable-background:new 0 0 50 45;" xml:space="preserve">
<style type="text/css">
	.st0{fill-rule:evenodd;clip-rule:evenodd;fill:url(#SVGID_1_);}
	.st1{fill-rule:evenodd;clip-rule:evenodd;fill:#010101;}
</style>
<linearGradient id="SVGID_1_" gradientUnits="userSpaceOnUse" x1="7.9797" y1="18.3062" x2="42.4641" y2="18.3062">
	<stop  offset="0" style="stop-color:#459844"/>
	<stop  offset="1" style="stop-color:#69BD48"/>
</linearGradient>
<path class="st0" d="M10.67,22.9c0-3.06,0-6.12,0-9.18l14.56-8.4l14.56,8.4v4.37c-4.85-2.8-9.7-5.6-14.56-8.4
	c-3.77,2.18-7.03,4.22-10.8,6.39v4.89l13.97,8.5l-3.17,1.83L10.67,22.9L10.67,22.9z M25.22,34.4l8.55-4.94
	c-5.75-3.31-11.06-6.64-16.82-9.97v-1.68l8.28-5.04c5.75,3.32,11.5,6.64,17.24,9.93V12.17L25.22,2.21L7.98,12.17
	c0,4.09,0,8.19,0,12.28L25.22,34.4L25.22,34.4z"/>
<polygon class="st1" points="7.54,31.83 10.22,30.28 24.78,38.69 39.33,30.28 39.33,28.02 24.78,19.61 24.79,16.52 42.02,26.47 
	42.02,31.83 24.78,41.79 7.54,31.83 "/>
</svg>
