<?xml version="1.0" encoding="utf-8"?>
<!-- Generator: Adobe Illustrator 23.0.3, SVG Export Plug-In . SVG Version: 6.00 Build 0)  -->
<svg version="1.1" xmlns="http://www.w3.org/2000/svg" xmlns:xlink="http://www.w3.org/1999/xlink" x="0px" y="0px"
	 viewBox="0 0 100 100" style="enable-background:new 0 0 100 100;" xml:space="preserve">
<style type="text/css">
	.st0{fill:url(#SVGID_1_);}
</style>
<g id="Layer_1">
	<g>
		<linearGradient id="SVGID_1_" gradientUnits="userSpaceOnUse" x1="22.3241" y1="43.3492" x2="64.4355" y2="43.3492">
			<stop  offset="0" style="stop-color:#459844"/>
			<stop  offset="1" style="stop-color:#69BD48"/>
		</linearGradient>
		<path class="st0" d="M22.33,39.99c4.4,0,8.8,0,13.2,0c0.02,0.08,0.04,0.16,0.05,0.24c-0.32,0.07-0.63,0.17-0.95,0.2
			c-1.5,0.12-1.98,0.72-1.47,2.16c0.87,2.49,1.83,4.95,2.78,7.42c1.55,4.03,3.13,8.05,4.7,12.07c0.18,0.45,0.38,0.9,0.65,1.52
			c6.28-14.19,12.48-28.2,18.68-42.2c-0.09-0.06-0.18-0.11-0.27-0.17c-1.11,1.74-2.26,3.46-3.32,5.23
			c-1.09,1.81-2.16,3.64-3.13,5.51c-0.96,1.85-1.78,3.76-2.65,5.65c-0.89,1.91-1.78,3.83-2.81,6.04c-0.48-1.11-0.89-1.98-1.24-2.87
			c-1.06-2.75-1.53-5.58-0.84-8.49c0.77-3.22,2.72-5.71,5.2-7.77c2.9-2.4,5.91-4.65,8.85-6.99c0.89-0.71,1.71-1.51,2.54-2.25
			c1.83,6.31,3.03,12.86,1.27,19.55c-1.13,4.28-3.42,7.8-7.75,9.54c-0.76,0.31-1.63,0.35-2.43,0.58c-0.31,0.09-0.7,0.29-0.84,0.56
			c-0.45,0.81-0.79,1.69-1.18,2.53c-2.65,5.72-5.3,11.43-7.95,17.15c-0.78,1.69-1.54,3.4-2.38,5.06c-0.23,0.45-0.73,0.77-1.1,1.14
			c-0.35-0.37-0.83-0.68-1.03-1.12c-0.99-2.14-1.91-4.32-2.84-6.49c-1.83-4.28-3.66-8.57-5.49-12.86c-1-2.34-2.06-4.66-2.97-7.04
			c-0.85-2.2-2.19-3.58-4.69-3.49c-0.2,0.01-0.4-0.09-0.6-0.14C22.33,40.18,22.33,40.09,22.33,39.99z"/>
		<path d="M51.7,50.44c1.84,4.39,3.61,8.64,5.39,12.89c0.09-0.01,0.17-0.02,0.26-0.03c0.3-0.74,0.61-1.47,0.9-2.21
			c2.21-5.71,4.43-11.42,6.63-17.13c0.19-0.49,0.37-0.99,0.51-1.5c0.36-1.3-0.06-1.85-1.43-1.94c-0.38-0.03-0.76-0.1-1.13-0.16
			c-0.01-0.11-0.02-0.22-0.04-0.32c0.31-0.09,0.62-0.25,0.94-0.25c3.95-0.02,7.9-0.02,11.85,0c0.3,0,0.6,0.15,0.9,0.22
			c0,0.09,0,0.18,0,0.27c-0.26,0.08-0.52,0.23-0.79,0.23c-2.23-0.01-3.62,1.05-4.48,3.1c-2.98,7.11-6.03,14.19-9.06,21.28
			c-0.78,1.83-1.55,3.66-2.4,5.46c-0.22,0.46-0.7,0.8-1.07,1.2c-0.41-0.39-0.98-0.7-1.19-1.17c-2.08-4.48-4.1-8.99-6.14-13.5
			c-0.13-0.28-0.21-0.6-0.39-0.85C49.43,53.98,50.43,52.26,51.7,50.44z"/>
	</g>
</g>
<g id="W">
</g>
</svg>
